<svg xmlns="http://www.w3.org/2000/svg" width="150" height="119.982" viewBox="0 0 150 119.982">
  <path id="Icon_awesome-code" data-name="Icon awesome-code" d="M65.366,119.867l-14.3-4.148a2.816,2.816,0,0,1-1.922-3.492L81.138,2.033A2.816,2.816,0,0,1,84.63.111l14.3,4.148a2.816,2.816,0,0,1,1.922,3.492L68.858,117.946a2.808,2.808,0,0,1-3.492,1.922ZM38.65,93.573,48.844,82.7a2.812,2.812,0,0,0-.187-4.031L27.424,59.989,48.657,41.311a2.792,2.792,0,0,0,.187-4.031L38.65,26.406a2.815,2.815,0,0,0-3.984-.117L.895,57.927a2.794,2.794,0,0,0,0,4.1L34.665,93.69a2.794,2.794,0,0,0,3.984-.117Zm76.682.141L149.1,62.052a2.794,2.794,0,0,0,0-4.1L115.331,26.265a2.838,2.838,0,0,0-3.984.117L101.152,37.257a2.812,2.812,0,0,0,.187,4.031l21.233,18.7L101.34,78.667a2.792,2.792,0,0,0-.187,4.031l10.195,10.874a2.816,2.816,0,0,0,3.984.141Z" transform="translate(0.002 -0.002)" fill="#f4511e"/>
</svg>
