<svg xmlns="http://www.w3.org/2000/svg" width="68.25" height="47.25" viewBox="0 0 68.25 47.25">
  <g id="Icon_ionic-ios-mail" data-name="Icon ionic-ios-mail" transform="translate(-3.375 -7.875)">
    <path id="Path_194" data-name="Path 194" d="M71.067,10.415,53.414,28.4a.317.317,0,0,0,0,.459L65.768,42.013a2.129,2.129,0,0,1,0,3.019,2.139,2.139,0,0,1-3.019,0l-12.3-13.109a.337.337,0,0,0-.476,0l-3,3.052a13.21,13.21,0,0,1-9.417,3.97,13.474,13.474,0,0,1-9.614-4.085l-2.888-2.937a.337.337,0,0,0-.476,0l-12.3,13.109a2.139,2.139,0,0,1-3.019,0,2.129,2.129,0,0,1,0-3.019L21.6,28.855a.349.349,0,0,0,0-.459L3.933,10.415a.323.323,0,0,0-.558.23V46.623a5.265,5.265,0,0,0,5.25,5.25h57.75a5.265,5.265,0,0,0,5.25-5.25V10.644A.328.328,0,0,0,71.067,10.415Z" transform="translate(0 3.252)"/>
    <path id="Path_195" data-name="Path 195" d="M36.366,37.915a8.919,8.919,0,0,0,6.415-2.691l25.741-26.2a5.156,5.156,0,0,0-3.248-1.148H7.474A5.122,5.122,0,0,0,4.226,9.023l25.741,26.2A8.921,8.921,0,0,0,36.366,37.915Z" transform="translate(1.134)"/>
  </g>
</svg>
