<svg xmlns="http://www.w3.org/2000/svg" width="135" height="134.998" viewBox="0 0 135 134.998">
  <path id="Icon_awesome-paint-brush" data-name="Icon awesome-paint-brush" d="M44.04,81.563c-10.578.68-20.178,4.709-25.626,19.063a4.024,4.024,0,0,1-3.847,2.631c-2.929,0-11.986-7.3-14.568-9.057C0,115.913,10,135,33.751,135c20,0,33.749-11.541,33.749-31.69a22.846,22.846,0,0,0-.256-2.407L44.04,81.563ZM120.732,0a16.1,16.1,0,0,0-10.6,4.337c-53.9,48.146-59.5,49.277-59.5,63.449a24.41,24.41,0,0,0,2.3,10.2L69.755,92.012a24.262,24.262,0,0,0,5.9.8c16.376,0,25.868-11.989,55.676-67.62C133.28,21.407,135,17.32,135,13.065,135,5.442,128.144,0,120.732,0Z" transform="translate(0.001)" fill="#f4511e"/>
</svg>
